# xmcd
#
# Track frame offsets: 
#        150
#        12548
#        24197
#        36520
#        49596
#        62048
#        74215
#        85934
#        97502
#        109202
#        121344
#        132814
#        143165
#        153791
#        165892
#        178654
#        191162
#        202526
#        213965
#        226612
#        239039
#        252408
#        265394
#        276532
#        289743
#
# Disc length: 4009 seconds
#
# Revision: 1
# Processed by: cddbd v1.5.2PL0 Copyright (c) Steve Scherf et al.
# Submitted via: ExactAudioCopyFreeDBPlugin 1.0
#
DISCID=630fa719
DTITLE=Mitchell's Christian Singers - Complete Recorded Works in Chron
DTITLE=ological Order, Volume 3 (1938-1940)
DYEAR=1996
DGENRE=Gospel
TTITLE0=The Saints Are Marching
TTITLE1=I Got a Letter from Jesus
TTITLE2=Up On the Mountain (With My Lord)
TTITLE3=I Have a Home in Yonder City
TTITLE4=Drinkin' of the Holy Wine
TTITLE5=You Got to Stand Judgment
TTITLE6=I Heard the Preachin' of the Elder
TTITLE7=Jesus Goin' Make Up My Dyin' Bed
TTITLE8=Judgment Is Coming
TTITLE9=Brother Come On In
TTITLE10=I Need to Be More Like Jesus
TTITLE11=What More Can My Jesus Do?
TTITLE12=Mother Dies A-Shoutin'
TTITLE13=I'm Gonna Do What My Lord Said
TTITLE14=Ain't Gonna Lay My Receiver Down
TTITLE15=Won't I Be Glad (When I Get to Heaven)
TTITLE16=Rock My Soul (In the Bosom of Abraham)
TTITLE17=My Poor Mother Died A-Shouting
TTITLE18=Are You Living Humble?
TTITLE19=Way Down in Egypt Land
TTITLE20=Lead Me to That Rock
TTITLE21=I Want Jesus to Be Around
TTITLE22=The Bridegroom's Coming
TTITLE23=Take My Hand
TTITLE24=Lead Me On
EXTD=
EXTT0=
EXTT1=
EXTT2=
EXTT3=
EXTT4=
EXTT5=
EXTT6=
EXTT7=
EXTT8=
EXTT9=
EXTT10=
EXTT11=
EXTT12=
EXTT13=
EXTT14=
EXTT15=
EXTT16=
EXTT17=
EXTT18=
EXTT19=
EXTT20=
EXTT21=
EXTT22=
EXTT23=
EXTT24=
PLAYORDER=
